# xmcd
# 
# Track frame offsets:
#     150
#     13345
#     30188
#     47754
#     63728
#     85189
#     104594
#     119046
#     131634
#     146285
#     162626
#     179236
# 
# Disc length: 2601
# 
# Revision: 0
# Processed by: cddbd v1.5.2PL0 Copyright (c) Steve Scherf et al.
# Submitted via: fre:ac v1.0.31
# 
DISCID=b30a270c
DTITLE=Son Little - aloha
DYEAR=0
DGENRE=Blues
TTITLE0=hey rose
TTITLE1=about her, again
TTITLE2=mahalia
TTITLE3=bbbaby
TTITLE4=suffer
TTITLE5=that's the way
TTITLE6=3rd eye weeping
TTITLE7=don't wait up
TTITLE8=belladonna
TTITLE9=o clever one
TTITLE10=never give up
TTITLE11=after all (i must be wrong)
EXTD=
EXTT0=
EXTT1=
EXTT2=
EXTT3=
EXTT4=
EXTT5=
EXTT6=
EXTT7=
EXTT8=
EXTT9=
EXTT10=
EXTT11=
PLAYORDER=
